<svg viewBox="0 0 643 258" xmlns="http://www.w3.org/2000/svg"><g fill="#231f20"><path d="m103.22 246.19q-22.97-13.09-78.21-45.41c-9.63-5.62-13.97-12.36-13.98-23.97q-.06-46.98 0-91.76.02-10.62 5.95-17.57 3.19-3.75 11.61-8.61 38.98-22.55 74.17-43.14 8.45-4.95 17.3-3.4 4.66.81 13.66 6.04 36.79 21.4 71.67 41.65 7.52 4.36 10.55 8.09 5.12 6.29 5.2 15.14.51 57.05.01 95.75-.18 13.88-14.11 21.99-37.06 21.59-78.31 45.53-12.36 7.17-25.51-.33zm24.44-204.26c-6.75-3.77-15.2-4.3-21.93-.75q-10.58 5.57-56.59 32.38-8.43 4.9-11.42 8.68-5.35 6.76-5.38 15.95-.08 26.53-.1 61.97c0 10.25 2.36 18.85 10.83 24.33q10.42 6.72 59.21 34.3c9.02 5.1 17.19 6.07 26.48.81q27.76-15.71 55.24-31.77 7.34-4.29 10.46-8.12 5.45-6.7 5.48-16.21.1-32.2.03-65.03c-.02-10.18-4.83-17.69-13.55-22.83q-28.99-17.06-58.76-33.71z"/><path d="m359.51 56h29.48a.3.3 0 0 1 .3.3v147.9a.3.3 0 0 1 -.3.3h-28.46a.3.3 0 0 1 -.25-.13l-66.73-96.4a.3.3 0 0 0 -.55.17v96.06a.3.3 0 0 1 -.3.3h-29.44a.3.3 0 0 1 -.3-.3v-147.9a.3.3 0 0 1 .3-.3h28.37a.3.3 0 0 1 .25.13l66.78 96.66a.3.3 0 0 0 .55-.17v-96.32a.3.3 0 0 1 .3-.3z"/><path d="m455.79 84.1v26.05a.35.35 0 0 0 .35.35l55.26-.01a.35.35 0 0 1 .35.35v26.52a.35.35 0 0 1 -.35.35h-55.26a.35.35 0 0 0 -.35.35v38.3a.35.35 0 0 0 .35.35h55.26a.35.35 0 0 1 .35.35v27.09a.35.35 0 0 1 -.35.35h-85.09a.35.35 0 0 1 -.35-.35v-147.8a.35.35 0 0 1 .35-.35h85.09a.35.35 0 0 1 .35.35v27.05a.35.35 0 0 1 -.35.35h-55.26a.35.35 0 0 0 -.35.35z"/><path d="m566.03 83.96h-31.31a.47.47 0 0 1 -.47-.47v-27.02a.47.47 0 0 1 .47-.47h94.81a.47.47 0 0 1 .47.47v27.02a.47.47 0 0 1 -.47.47h-32.06a.47.47 0 0 0 -.47.47v119.6a.47.47 0 0 1 -.47.47h-29.56a.47.47 0 0 1 -.47-.47v-119.6a.47.47 0 0 0 -.47-.47z"/></g><path d="m151.86 151.8q1.1-.64-.17-.63l-34.93.22q-.64.01-.64-.63v-24.75a.37.37 0 0 1 .37-.37h64.64a.36.36 0 0 1 .36.35q.04 15.56-.06 32.62c-.04 6.63-2.06 11.79-7.64 15.08q-24.28 14.32-50.14 29.19c-5.38 3.09-10.66 2.4-16.06-.67q-26.39-15.04-49.28-28.71c-5.03-3-7.32-7.58-7.37-13.37q-.26-28.64.06-57.84c.07-6.26 2.44-11.09 7.75-14.21q25.26-14.85 49.63-28.92c5.64-3.25 11.4-2.36 17.05.97q27.01 15.91 52.51 31.22a.25.24-45.8 0 1 0 .42l-27.53 17.66q-.46.29-.93.02l-33.41-19.33q-.28-.16-.56 0l-34.02 19.6q-.46.27-.46.8v40.66q0 .5.43.76l34.55 20.22a.65.64-44.2 0 0 .65 0z" fill="#39b54a"/></svg>