<svg viewBox="0 0 253 297" xmlns="http://www.w3.org/2000/svg"><g fill="none" stroke-width="2"><path d="m117.16 251.59c7.11 4.08 14.42 4.65 21.79.6q8.15-4.48 67.1-38.82 7.81-4.56 10.54-8 4.82-6.09 4.85-14.39.16-40.63-.02-82.71-.06-13.21-11.76-19.99-30.05-17.4-63.34-36.83-9.2-5.36-12.82-6.32-8.19-2.17-16.74 2.78-33.76 19.55-69.66 40.61c-8.7 5.1-11.51 12.88-11.46 22.97q.22 38.96-.02 75.6c-.06 9.55 1.62 17.65 9.59 22.54q16.54 10.15 71.95 41.96" stroke="#918f90"/><path d="m184.06 96.95c-15.24-8.87-30.47-17.62-45.84-26.11q-5.97-3.29-13.1-2.21-4.01.61-10.84 4.5-30.65 17.48-49.08 28.56-10.72 6.44-10.69 20.24.05 25.7-.03 52.4c-.04 10.72 2.09 18.39 11.42 23.91q22.76 13.46 46.21 26.68c6.34 3.57 11.71 7.13 19.64 6.05q3.86-.53 10.66-4.4 40.18-22.92 50.39-29.33c6.74-4.23 9.83-11.51 9.83-19.64q.02-26.01-.02-56.21-.01-4.62-1.28-8.23c-2.9-8.22-8.53-11.11-17.27-16.21" stroke="#918f90"/><path d="m159.49 167.62q1.51-.01.2.75l-30.12 17.43a1.57 1.57 0 0 1 -1.58 0l-29.35-17.2a2.07 2.06 15.3 0 1 -1.02-1.78l.02-34.82a1.35 1.35 0 0 1 .68-1.17l29.23-16.87a1.49 1.47 44.7 0 1 1.47 0l28.8 16.69a1.18 1.17 43.6 0 0 1.24-.03l23.85-15.27a.5.5 0 0 0 -.01-.84q-21.79-13.21-44.21-26.32c-6.43-3.76-11.13-5.38-17.54-1.65q-13.95 8.12-42.14 24.54c-5.09 2.97-7.94 6.78-8.01 13.07q-.19 18.91-.12 48.33c.02 6.68.97 11.62 6.77 15.04q20.12 11.83 42.87 24.99c5.36 3.11 10.31 3.5 15.84.24q19.04-11.21 38.12-22.14c6.9-3.95 11.53-6.88 11.73-14.93q.39-15.24.07-30.15-.01-.52-.53-.52h-57a.25.24 0 0 0 -.25.24v21.78a.79.79 0 0 0 .79.79z" stroke="#afd9ac"/></g><path d="m0 0h253v297h-253zm117.16 251.59c7.11 4.08 14.42 4.65 21.79.6q8.15-4.48 67.1-38.82 7.81-4.56 10.54-8 4.82-6.09 4.85-14.39.16-40.63-.02-82.71-.06-13.21-11.76-19.99-30.05-17.4-63.34-36.83-9.2-5.36-12.82-6.32-8.19-2.17-16.74 2.78-33.76 19.55-69.66 40.61c-8.7 5.1-11.51 12.88-11.46 22.97q.22 38.96-.02 75.6c-.06 9.55 1.62 17.65 9.59 22.54q16.54 10.15 71.95 41.96z" fill="#fff"/><path d="m138.95 252.19c-7.37 4.05-14.68 3.48-21.79-.6q-55.41-31.81-71.95-41.96c-7.97-4.89-9.65-12.99-9.59-22.54q.24-36.64.02-75.6c-.05-10.09 2.76-17.87 11.46-22.97q35.9-21.06 69.66-40.61 8.55-4.95 16.74-2.78 3.62.96 12.82 6.32 33.29 19.43 63.34 36.83 11.7 6.78 11.76 19.99.18 42.08.02 82.71-.03 8.3-4.85 14.39-2.73 3.44-10.54 8-58.95 34.34-67.1 38.82zm45.11-155.24c-15.24-8.87-30.47-17.62-45.84-26.11q-5.97-3.29-13.1-2.21-4.01.61-10.84 4.5-30.65 17.48-49.08 28.56-10.72 6.44-10.69 20.24.05 25.7-.03 52.4c-.04 10.72 2.09 18.39 11.42 23.91q22.76 13.46 46.21 26.68c6.34 3.57 11.71 7.13 19.64 6.05q3.86-.53 10.66-4.4 40.18-22.92 50.39-29.33c6.74-4.23 9.83-11.51 9.83-19.64q.02-26.01-.02-56.21-.01-4.62-1.28-8.23c-2.9-8.22-8.53-11.11-17.27-16.21z" fill="#231f20"/><path d="m138.22 70.84c15.37 8.49 30.6 17.24 45.84 26.11 8.74 5.1 14.37 7.99 17.27 16.21q1.27 3.61 1.28 8.23.04 30.2.02 56.21c0 8.13-3.09 15.41-9.83 19.64q-10.21 6.41-50.39 29.33-6.8 3.87-10.66 4.4c-7.93 1.08-13.3-2.48-19.64-6.05q-23.45-13.22-46.21-26.68c-9.33-5.52-11.46-13.19-11.42-23.91q.08-26.7.03-52.4-.03-13.8 10.69-20.24 18.43-11.08 49.08-28.56 6.83-3.89 10.84-4.5 7.13-1.08 13.1 2.21zm21.27 96.78q1.51-.01.2.75l-30.12 17.43a1.57 1.57 0 0 1 -1.58 0l-29.35-17.2a2.07 2.06 15.3 0 1 -1.02-1.78l.02-34.82a1.35 1.35 0 0 1 .68-1.17l29.23-16.87a1.49 1.47 44.7 0 1 1.47 0l28.8 16.69a1.18 1.17 43.6 0 0 1.24-.03l23.85-15.27a.5.5 0 0 0 -.01-.84q-21.79-13.21-44.21-26.32c-6.43-3.76-11.13-5.38-17.54-1.65q-13.95 8.12-42.14 24.54c-5.09 2.97-7.94 6.78-8.01 13.07q-.19 18.91-.12 48.33c.02 6.68.97 11.62 6.77 15.04q20.12 11.83 42.87 24.99c5.36 3.11 10.31 3.5 15.84.24q19.04-11.21 38.12-22.14c6.9-3.95 11.53-6.88 11.73-14.93q.39-15.24.07-30.15-.01-.52-.53-.52h-57a.25.24 0 0 0 -.25.24v21.78a.79.79 0 0 0 .79.79z" fill="#fff"/><path d="m159.49 167.62-30.2.2a.79.79 0 0 1 -.79-.79v-21.78a.25.24 0 0 1 .25-.24h57q.52 0 .53.52.32 14.91-.07 30.15c-.2 8.05-4.83 10.98-11.73 14.93q-19.08 10.93-38.12 22.14c-5.53 3.26-10.48 2.87-15.84-.24q-22.75-13.16-42.87-24.99c-5.8-3.42-6.75-8.36-6.77-15.04q-.07-29.42.12-48.33c.07-6.29 2.92-10.1 8.01-13.07q28.19-16.42 42.14-24.54c6.41-3.73 11.11-2.11 17.54 1.65q22.42 13.11 44.21 26.32a.5.5 0 0 1 .01.84l-23.85 15.27a1.18 1.17 43.6 0 1 -1.24.03l-28.8-16.69a1.49 1.47 44.7 0 0 -1.47 0l-29.23 16.87a1.35 1.35 0 0 0 -.68 1.17l-.02 34.82a2.07 2.06 15.3 0 0 1.02 1.78l29.35 17.2a1.57 1.57 0 0 0 1.58 0l30.12-17.43q1.31-.76-.2-.75z" fill="#5fb258"/></svg>